<?xml version="1.0" encoding="utf-8"?>
<!-- Generator: Adobe Illustrator 23.1.1, SVG Export Plug-In . SVG Version: 6.00 Build 0)  -->
<svg version="1.1" id="Layer_1" xmlns="http://www.w3.org/2000/svg" xmlns:xlink="http://www.w3.org/1999/xlink" x="0px" y="0px"
	 viewBox="0 0 1024 1024" style="enable-background:new 0 0 1024 1024;" xml:space="preserve">
<style type="text/css">
	.st0{fill:#F2F2F2;}
	.st1{fill:#E5E5E5;}
	.st2{fill:#0089A7;}
	.st3{clip-path:url(#SVGID_1_);}
	.st4{fill:#86C166;}
	.st5{fill:#212C2E;}
	.st6{fill:#D9AB42;}
	.st7{clip-path:url(#SVGID_2_);}
	.st8{fill:#293738;}
	.st9{fill:#161D1E;}
	.st10{fill:#84B2B6;}
	.st11{fill:#D2EFF2;}
</style>
<path class="st0" d="M99.6,1023.5h824c55.2,0,100-44.8,100-100v-824c0-55.2-44.8-100-100-100h-824c-55.2,0-100,44.8-100,100v824
	C-0.4,978.8,44.4,1023.5,99.6,1023.5z"/>
<g id="logo">
	<g>
		<ellipse id="shadow" class="st1" cx="509.9" cy="783.2" rx="390" ry="75"/>
		<g id="earth">
			
				<ellipse transform="matrix(0.7071 -0.7071 0.7071 0.7071 -178.5758 561.5106)" class="st2" cx="588.5" cy="496.3" rx="271.4" ry="271.4"/>
			<g>
				<defs>
					
						<ellipse id="SVGID_5_" transform="matrix(0.7071 -0.7071 0.7071 0.7071 -178.5758 561.5106)" cx="588.5" cy="496.3" rx="271.4" ry="271.4"/>
				</defs>
				<clipPath id="SVGID_1_">
					<use xlink:href="#SVGID_5_"  style="overflow:visible;"/>
				</clipPath>
				<g class="st3">
					<path class="st4" d="M363.3,416.3c3.1,2,10.9,4.9,14.7,12.9c4.6,9.7-1.5,16.4,3.3,22.6c5.4,7,15.1,0.7,24.7,9
						c1.6,1.4,4.5,5.9,10.2,14.8c5.3,8.4,6.2,10.7,9.7,13.1c6.4,4.5,10.7,1.7,13.6,4.7c7,7.1-14.7,26.1-10.7,45.7
						c3.3,16.1,20.3,14.6,39.3,44.3c3.6,5.5,7.4,11.6,10.2,20.5c4.7,14.6,0.9,18.7,4.2,37.3c1.4,7.8,4.4,16.4,10.3,33.6
						c4.5,13,6.8,19.6,9.9,23.4c11,13.9,30.4,19.1,32.8,15.8c0.8-1.2-0.7-2.9-3.1-8.1c-4.5-9.6-6.2-18.7-6.4-22.5
						c-0.7-9.6,5.6-10.7,14.9-29.4c8.8-17.8,6.1-23,15.5-35.2c2.7-3.5,5.9-6.7,12.3-13.1c14.1-14.1,16.8-13.9,19.2-19.4
						c4.4-10.1-3-14-1-28.9c2.3-17.2,13.4-21.5,10.5-28.6c-4.1-10-26.1-0.4-44.4-15.3c-9.5-7.7-7.9-13.9-20-21.5
						c-2.8-1.7-11.7-7.2-24.1-8.1c-12.5-0.8-13.7,4.1-23.4,2.8c-15.2-2-16.2-14.3-29.4-15.2c-12.7-0.9-16.1,7.4-24.2,3.5
						c-4.8-2.3-7.3-8.1-8.3-11.2c-3.7-11.8,0.3-16.9-3.5-20.7c-4.6-4.7-11.8-3.3-17.2-7.5c-7.5-5.8-5-28.1,9.5-32.4
						c13.9-4.1,18.7,5.4,27.1,3.5c5.1-1.1,8.1-3.5,12.1-14.2c4.8-12.9,20.6-18.4,26.3-20.6c12.1-4.6,15.2-1.3,21.7-6.6
						c8.4-6.7,7.2-15.1,14.7-17.6c6-2,8.5,2.8,15.5,1c6.4-1.6,13.3-7.9,13.4-15.5c0.1-7.9-7.8-11.5-9.8-14.9
						c-5.2-10.3,10.6-15.8,17.2-17.5c8.3-2.3,20.2,2.6,31.5-4.5c3.2-2,16.5-10.4,18.6-26c1.7-12.4-4.7-22.1-6.8-25.2
						c-12.4-18.3-36.3-21.9-49.3-23.6c-102.7-13.8-156.9,52.8-156.9,52.8C344.1,327.4,344.5,404.4,363.3,416.3z"/>
					<path class="st5" d="M532.3,718.8c-7.8,0-23.2-6.2-32.8-18.3c-3.5-4.4-6-11.6-10.5-24.6c-6-17.4-9.1-26.1-10.5-34.2
						c-1.5-8.7-1.6-14.3-1.6-19.3c0-5.6-0.1-10-2.4-17.4c-2.7-8.6-6.5-14.4-9.8-19.5c-9.4-14.6-18.2-21.3-25.2-26.6
						c-6.9-5.2-12.8-9.7-14.7-19c-2.4-11.8,3.1-22.9,7.6-31.7c2.1-4.2,5.4-10.7,4.1-11.9c-0.3-0.3-0.9-0.4-2.5-0.6
						c-2.5-0.3-6.2-0.6-10.6-3.7c-3.4-2.4-4.9-4.7-8-9.7c-0.8-1.3-1.7-2.8-2.8-4.5c-4.8-7.5-8.2-12.9-9.4-13.9c-4-3.4-7.9-3.7-12-4
						c-4.4-0.3-9.5-0.7-13.2-5.5c-3.3-4.3-2.9-8.8-2.5-12.7c0.3-3.5,0.6-6.7-1.2-10.6c-2.6-5.4-7.4-8.1-10.9-10
						c-0.9-0.5-1.6-0.9-2.3-1.3l0,0c-6.2-3.9-10.6-12.8-12.6-25.7c-5.1-31.4,3.9-83.1,35.8-122.2c0.6-0.7,14.3-17.4,41.1-32.6
						c24.6-13.9,65.3-29,119.5-21.7c12.5,1.7,38.5,5.2,52.1,25.3c6.2,9.2,8.7,18.6,7.4,28c-1.1,8-5.5,19.5-20.4,28.9
						c-8.2,5.1-16.6,4.8-23.3,4.6c-3.5-0.1-6.8-0.3-9.3,0.4c-6.3,1.6-13.4,4.8-15,8.3c-0.3,0.7-0.6,1.8,0.2,3.5
						c0.4,0.5,1.4,1.5,2.3,2.3c3.2,2.9,8.1,7.3,8,14.6c-0.2,9.5-8.5,17.3-16.4,19.3c-4.7,1.2-8,0.1-10.5-0.7c-2.1-0.7-3.2-1-4.8-0.4
						c-2.3,0.8-3.2,2.4-5,5.8c-1.7,3.3-3.8,7.4-8.4,11.1c-4.5,3.6-8,4-11.7,4.5c-2.9,0.4-6.1,0.8-11.1,2.7l-0.8,0.3
						c-5.8,2.2-19.3,7.3-23.2,17.9c-4.1,11.1-7.8,15.2-15,16.8c-4.8,1-8.6-0.6-12-2.1c-4.2-1.8-8.1-3.5-14.7-1.5
						c-7.8,2.3-9.9,10.8-10.4,13.3c-1.1,5.9,0.3,10.6,2.2,12.1c1.9,1.5,4.3,2.1,6.9,2.7c3.5,0.9,7.5,1.9,10.7,5.2
						c3,3.1,2.9,6.7,2.9,10.1c-0.1,3-0.1,6.8,1.5,12.1c1,3.3,3.2,7.4,6.2,8.8c2.5,1.2,3.9,0.7,7.6-0.8c3.5-1.5,8.2-3.5,15.2-3
						c7.9,0.5,12.3,4.5,16.2,8.1c3.8,3.4,7,6.3,13.5,7.2c3.9,0.5,5.9-0.1,8.7-1c3.2-1,7.3-2.3,14.4-1.8c9.1,0.6,17.8,3.5,25.9,8.7
						c7.5,4.7,10.4,9.2,13,13.1c1.9,2.9,3.7,5.6,7.4,8.7c8.9,7.3,19.1,8.1,27.3,8.7c7.9,0.6,15.5,1.3,18.3,8.1
						c2.2,5.3-0.6,9.6-3.3,13.7c-2.6,4-5.8,8.9-6.9,16.9c-0.8,6.3,0.2,10.3,1.2,14.1c1.2,4.6,2.4,9.3-0.5,15.8
						c-1.8,4-3.7,5.7-7.6,9.1c-2.8,2.4-6.5,5.7-12.4,11.5c-6.3,6.3-9.4,9.4-11.9,12.7c-4.9,6.3-6.2,10.5-8,16.3
						c-1.4,4.6-3.2,10.2-7.1,18.2c-4.1,8.2-7.6,13.2-10.2,16.8c-3.3,4.6-4.6,6.4-4.3,10.5c0.2,3.3,1.8,12,6.1,21.1
						c0.7,1.5,1.3,2.7,1.9,3.7c1.4,2.7,2.9,5.6,0.9,8.4c-1.2,1.7-3.2,2.6-6,2.6C532.5,718.8,532.4,718.8,532.3,718.8z M516.9,223.6
						c-38.7,0-68.3,11.7-87.6,22.6c-25.4,14.4-38.7,30.5-38.8,30.6c-28.9,35.6-39,85.2-34.1,115.9c1.7,10.3,5,17.7,9,20.3
						c0,0,0,0,0,0c0.4,0.3,1.1,0.6,1.8,1c4,2.2,10.6,5.8,14.3,13.6c2.8,5.9,2.3,10.8,1.9,14.8c-0.3,3.6-0.4,5.3,0.9,7.1
						c1.5,1.9,3.5,2.1,7.5,2.4c4.8,0.4,10.7,0.8,16.6,5.9c2.1,1.8,4.7,5.9,10.9,15.7c1.1,1.8,2.1,3.3,2.9,4.6c3,4.8,3.8,6,5.8,7.4
						c2.7,1.8,4.7,2.1,6.8,2.3c2.2,0.2,5,0.5,7.3,2.9c5.3,5.4,1.4,13-2.7,21.2c-4.1,8.2-8.8,17.4-6.9,26.5
						c1.3,6.3,5.2,9.3,11.7,14.2c7.2,5.4,16.9,12.9,27.1,28.7c3.4,5.3,7.6,11.8,10.6,21.4c2.7,8.6,2.8,13.8,2.8,19.8
						c0,4.6,0.1,9.9,1.5,18c1.3,7.5,4.3,16,10.2,32.9c4.1,11.8,6.6,18.9,9.2,22.2c7.7,9.7,19,14.1,24.5,15.1c-0.5-0.9-1-1.9-1.6-3.2
						c-4.7-10.1-6.5-19.8-6.8-23.9c-0.5-7,2.1-10.6,5.7-15.7c2.6-3.6,5.8-8.1,9.5-15.7c3.7-7.4,5.2-12.5,6.6-17
						c1.9-6.1,3.5-11.3,9.3-18.8c2.9-3.7,6.1-7,12.6-13.4c6.1-6.1,10.1-9.6,12.8-11.9c3.7-3.3,4.6-4,5.6-6.3c1.7-4,1.1-6.5,0.1-10.6
						c-1.1-4.2-2.4-9.3-1.3-17.2c1.3-9.9,5.3-15.9,8.1-20.3c2.5-3.8,3.1-5,2.6-6.2c-0.9-2.2-5-2.7-11.5-3.2
						c-8.8-0.7-20.8-1.7-31.7-10.5c-4.7-3.8-7-7.4-9.1-10.5c-2.4-3.7-4.6-6.9-10.6-10.7c-7-4.4-14.5-6.9-22.2-7.5
						c-5.7-0.4-8.5,0.5-11.5,1.4c-3.2,1-6.5,2-12.2,1.3c-8.9-1.2-13.9-5.6-17.8-9.2c-3.5-3.2-6.3-5.7-11.4-6
						c-5.1-0.4-8.4,1-11.5,2.4c-3.9,1.7-8.3,3.5-14.2,0.7c-6.5-3.1-9.4-10.6-10.4-13.6c-2.1-6.6-2-11.3-1.9-14.7
						c0.1-3,0-3.8-0.6-4.4c-1.6-1.7-4.1-2.3-6.9-3c-3.1-0.8-6.7-1.7-9.9-4.1c-4.7-3.6-6.8-11.4-5.2-19.9c1.8-9.8,7.8-17.1,16-19.5
						c9.4-2.8,15.6-0.1,20.1,1.9c3.1,1.4,5,2.1,7.2,1.6c2.9-0.6,5.3-1.1,9.2-11.7c5.2-14,21.1-20.1,27.9-22.6l0.8-0.3
						c5.9-2.3,10-2.8,13-3.2c3.3-0.4,5-0.6,7.7-2.8c3.3-2.6,4.8-5.6,6.3-8.5c1.9-3.7,4.1-7.9,9.6-9.7c4.2-1.4,7.3-0.4,9.8,0.4
						c2.1,0.7,3.6,1.1,6,0.5c5-1.3,10.3-6.3,10.4-11.7c0.1-3.4-2.2-5.6-5.3-8.5c-1.6-1.4-3-2.7-4-4.3c0-0.1-0.1-0.1-0.1-0.2
						c-1.8-3.6-2-7.2-0.4-10.5c3.5-7.7,15.3-11.4,20.2-12.7c3.6-1,7.5-0.8,11.6-0.7c6.2,0.2,12.7,0.5,18.8-3.3
						c12.3-7.7,15.9-16.9,16.7-23.2c1-7.4-1.1-15-6.1-22.5c-11.6-17.2-35.2-20.4-46.6-21.9C534.3,224.1,525.4,223.6,516.9,223.6z"/>
				</g>
				<g class="st3">
					<path class="st4" d="M774.5,668.3c-2.9-5.4,2.2-11.1-1.6-19.8c-3-6.9-7.5-6.2-9.1-11.5c-2.8-9.9,12-15.9,11.2-27.9
						c-0.7-11.3-14.1-13-14.1-23.8c0-9.5,10.4-11.2,11.8-23.5c0.6-5-1-6-4.4-19.4c-2-7.6-4.5-17.6-5.2-27.7
						c-1.3-19.7,5.4-26.5,1-30.6c-5.1-4.8-14.9,3.4-41.1,7.8c-13.3,2.3-20,3.4-27,1.6c-18.7-4.9-35.1-25.5-34.3-43.7
						c0.4-8.6,4.3-11,4.4-24.3c0.1-11-2.6-13.2-1.3-20.7c2.4-13.9,14.3-22.3,15.4-23.1c10.7-7.4-2.7-33.7,6.8-41.1
						c3.2-2.5,5-7.2,4.8-12.9c-0.2-4.2-6.2-15.1-11.3-17.7c-4.2-2.2-12.5-4.4-17.3-5.4c-6.5-1.3-11.8-18.9-5.6-26
						c4.8-5.5,13.3-1.1,16.8-6.2c4.7-6.7-7.8-18-4.7-25.7c3.8-9.2,28.7-9.5,46.5-5.7c53.4,11.2,85.1,67.4,129.9,149.2
						c34.5,63,37,85,37.6,95.3c2,30.8-6.9,54.6-24.5,102.1c-16.4,44.1-30.8,81.4-57.8,86.6C793.6,675.7,778.5,675.5,774.5,668.3z"/>
					<path class="st5" d="M792.8,678.9c-8.1,0-17.9-1.7-21.7-8.7c-2-3.7-1.5-7.3-1-10.4c0.4-3.1,0.9-6.1-0.7-9.7
						c-1.1-2.6-2.5-3.7-4-4.9c-1.8-1.5-4.1-3.3-5.2-7.1c-2-7,2.1-12.2,5.6-16.9c3-3.8,5.7-7.4,5.5-11.9c-0.2-3.8-2.4-6-6-9.3
						c-3.6-3.4-8.1-7.5-8.1-14.7c0-6.1,3.3-9.8,6.1-13c2.6-3,5.1-5.8,5.7-10.9c0.3-2.3,0-3.1-1.2-7.1c-0.8-2.4-1.8-5.7-3.1-10.8
						c-1.9-7.6-4.6-18-5.3-28.4c-0.7-10.5,0.8-17.6,1.7-22.3c0.7-3.2,1-5.1,0.5-5.6c-1.1-1.1-5.6,0.3-11.2,2.1
						c-6.2,2-14.8,4.7-26.6,6.7c-13.9,2.4-20.8,3.6-28.7,1.5c-20.7-5.4-38.1-27.7-37.3-47.7c0.2-4.3,1.1-7.3,2.1-10.2
						c1.1-3.5,2.3-7.1,2.4-14c0-4.8-0.5-7.7-0.9-10.3c-0.6-3.2-1.1-6.3-0.3-11c2.7-15.4,15.6-24.7,17.1-25.7
						c3.6-2.4,2.8-10.1,2.1-17.5c-0.9-9.1-1.8-18.5,4.5-23.5c2.2-1.7,3.4-5.2,3.2-9.6c-0.1-3-5.5-12.4-9.1-14.3
						c-3.5-1.8-11-3.9-16.3-5c-4.2-0.9-7.8-5.1-10-11.5c-2.1-6.2-2.7-15.5,2.2-21.1c3.5-4,8.3-4.3,11.8-4.6c2.8-0.2,4.2-0.4,4.7-1.2
						c1.1-1.6-0.7-5.5-2.4-9c-2.3-5-4.9-10.6-2.7-15.9c2.4-5.8,9.6-9.2,21.3-10.2c8.9-0.7,20,0,29.6,2c25.7,5.4,48.1,21.1,70.5,49.6
						c19.7,25,38.2,57.9,62.1,101.6c32,58.5,37.2,82.5,38.1,96.9c2,31.7-6.9,55.8-24.8,103.7c-16,42.9-31,83.4-60.8,89.2
						C800.1,678.5,796.6,678.9,792.8,678.9z M760.4,478.6c2.5,0,4.7,0.7,6.6,2.5c3.8,3.6,2.9,8,1.9,13.1c-0.9,4.6-2.2,10.8-1.6,20.2
						c0.7,9.7,3.1,19.3,5.1,27c1.2,4.9,2.2,8,3,10.4c1.3,4.3,2,6.4,1.5,10.5c-0.9,7.6-4.7,11.9-7.7,15.3c-2.7,3.1-4.1,4.8-4.1,7.8
						c0,3.5,2,5.6,5.5,8.8c3.6,3.3,8.1,7.5,8.5,14.7c0.4,7.4-3.8,12.9-7.1,17.3c-3.3,4.3-5.1,6.8-4.3,9.8c0.4,1.3,0.9,1.8,2.5,3
						c1.9,1.5,4.5,3.5,6.4,8c2.5,5.7,1.8,10.5,1.3,14c-0.4,2.7-0.6,4.2,0.1,5.5c0,0,0,0,0,0c2.3,4.3,14,5.6,22.8,3.9
						c25.3-4.9,39.6-43.3,54.8-84.1c17.4-46.9,26.2-70.5,24.3-100.4c-0.5-8-1.9-29.2-37.1-93.6c-23.8-43.4-42.1-76-61.4-100.5
						c-21.1-26.9-42.1-41.7-65.9-46.7c-20.7-4.3-39.8-1.7-41.9,3.3c-0.9,2.1,1,6,2.6,9.5c2.5,5.4,5.4,11.6,1.7,17
						c-2.8,4-7.2,4.3-10.7,4.6c-3.1,0.2-5.1,0.4-6.4,1.9c-2.1,2.4-2.4,8-0.6,13.2c1.4,4.1,3.3,6,4,6.2c4.1,0.9,13.2,3.1,18.3,5.7
						c6.5,3.4,13.3,15.8,13.5,21.1c0.3,7-2,12.9-6.3,16.2c-2.9,2.3-2.2,9.8-1.5,16.4c0.9,9.3,2,19.8-5.5,24.9
						c-0.5,0.3-11.6,8.1-13.7,20.5c-0.6,3.3-0.2,5.3,0.3,8.2c0.5,2.8,1.1,6.3,1.1,11.8c-0.1,8.1-1.5,12.5-2.8,16.4
						c-0.9,2.7-1.6,4.8-1.7,8c-0.7,16.3,14.3,35.2,31.3,39.7c6.2,1.6,12.6,0.5,25.3-1.6c11.2-1.9,19.5-4.5,25.5-6.5
						C752.9,479.9,757,478.6,760.4,478.6z"/>
				</g>
			</g>
			<path class="st5" d="M588,771.9c-48.8,0-97-13.1-140.1-38.7c-63.3-37.5-108.1-97.5-126.3-168.8c-18.2-71.3-7.5-145.4,30-208.7
				s97.5-108.1,168.8-126.3c71.3-18.2,145.4-7.5,208.7,30c63.3,37.5,108.1,97.5,126.3,168.8c18.2,71.3,7.5,145.4-30,208.7
				c-37.5,63.3-97.5,108.1-168.8,126.3C633.9,769,610.9,771.9,588,771.9z M589,228.8c-22.2,0-44.5,2.8-66.6,8.4
				c-69.2,17.7-127.4,61.2-163.9,122.7c-36.5,61.4-46.8,133.4-29.1,202.6c17.7,69.2,61.2,127.4,122.7,163.9
				c61.4,36.4,133.4,46.8,202.6,29.1c69.2-17.7,127.4-61.2,163.9-122.7c36.5-61.4,46.8-133.4,29.1-202.6
				C830,361,786.4,302.8,725,266.3C683.1,241.5,636.4,228.8,589,228.8z"/>
		</g>
		<g id="hat">
			<g>
				<path class="st5" d="M464,432.7l-5.8-5.5c0,0-0.1,0.1-0.2,0.2c0,0,1.7-2.4,0.4-9.3c-0.7-3.7-4.8-7.5-8.9-11.3
					c-4.3-4-8.7-8-10.7-13.2c-1.1-3-1.8-6.2-2.5-9.6c-1.5-7.1-3.1-14.5-9.4-20.7c-8-7.8-41.2-22.2-53.3-27.1c-2-0.8-3-3.2-2.2-5.2
					c0.8-2,3.2-3,5.2-2.2c1.8,0.7,45.2,18.3,55.9,28.8c8.1,7.8,10,17.2,11.6,24.8c0.6,3.1,1.3,6,2.2,8.4c1.3,3.4,5,6.8,8.6,10.1
					c5,4.6,10.2,9.4,11.3,15.7C468.3,427.5,464.7,431.9,464,432.7z"/>
				<g>
					<g>
						<path class="st6" d="M455,430c-2.7,2.9-11.2,18-11.3,19.1c0,2.5,8.4,7.6,10.3,5.7c3.8-3.6,12.1-23.7,9.3-26.8
							c-1.2-1.3-2.8-1.9-4.5-1.2c-0.9,0.4-1.7,1-2.4,1.6C456,429,455.5,429.5,455,430z"/>
						<path class="st5" d="M452.8,459.3c-1.3,0-2.8-0.3-4.7-1.2c-0.9-0.4-8.5-3.9-8.4-9.1c0-0.9,0-1.9,5.2-10.8
							c1.9-3.2,5.2-8.9,7.1-11l0,0c0.6-0.6,1.2-1.2,1.8-1.8c0.9-0.8,2-1.8,3.6-2.4c3.2-1.3,6.6-0.4,9,2.3c1,1.2,3.5,4-1.5,17.3
							c-2,5.3-5.3,12.4-8.1,15.1C456,458.6,454.7,459.3,452.8,459.3z M448.2,448.9c1,0.9,2.7,1.9,3.9,2.3c2.7-3.8,7.7-15.9,7.9-20.3
							c-0.3,0.2-0.6,0.5-0.7,0.6c-0.4,0.4-0.9,0.8-1.3,1.3l0,0C456.1,434.7,450.2,444.8,448.2,448.9z"/>
					</g>
				</g>
			</g>
			<g>
				<defs>
					
						<rect id="SVGID_7_" x="272.4" y="282.5" transform="matrix(0.9392 0.3434 -0.3434 0.9392 133.6409 -111.8816)" width="220.7" height="77.7"/>
				</defs>
				<clipPath id="SVGID_2_">
					<use xlink:href="#SVGID_7_"  style="overflow:visible;"/>
				</clipPath>
				<g class="st7">
					<g>
						<path class="st8" d="M468.9,365.1l-73.9-65.9c-2.8-2.5-6.5-3.9-10.3-3.7l-99,2.6c-1.9,0.1-2.8,2.4-1.4,3.7l73.9,65.9
							c2.8,2.5,6.5,3.9,10.3,3.7l99-2.6C469.4,368.7,470.3,366.4,468.9,365.1z"/>
						<path class="st5" d="M368.1,375.4c-4.6,0-9-1.7-12.5-4.8l-73.9-65.9c-1.9-1.7-2.5-4.3-1.7-6.7s3.1-4,5.6-4l99-2.6
							c4.8-0.1,9.4,1.6,13,4.8l73.9,65.9c1.9,1.7,2.5,4.3,1.7,6.7c-0.9,2.4-3.1,4-5.6,4l-99,2.6
							C368.4,375.4,368.3,375.4,368.1,375.4z M466.2,368.1C466.2,368.1,466.2,368.1,466.2,368.1L466.2,368.1L466.2,368.1z
							 M290.5,302l70.4,62.7c2.1,1.8,4.7,2.8,7.5,2.7l94.3-2.5l-70.4-62.7c-2.1-1.8-4.7-2.8-7.5-2.7L290.5,302z"/>
					</g>
				</g>
			</g>
			<g>
				<path class="st9" d="M377.5,330.9c-28.2-10.3-54.7-8.8-59.2,3.4c-0.1,0.3-4.6,11.7-7.3,19.2c18.9-4.9,34.8-2.5,56.6,5.7
					c21.5,8.1,37.8,19.5,44.6,33c2.7-7.3,8.2-20.2,8.3-20.6C425,359.5,405.7,341.2,377.5,330.9z"/>
				<path class="st5" d="M412.2,396.3c-1.5,0-2.9-0.8-3.6-2.2c-6.1-12-21.1-23-42.5-31.1c-22.4-8.5-37.1-10-54.1-5.6
					c-1.4,0.4-3-0.1-4-1.2c-1-1.1-1.3-2.7-0.8-4.1c2.3-6.3,5.8-15.3,6.9-18.2c0.2-0.6,0.4-0.9,0.4-1c5.4-14.7,33-17.2,64.3-5.8
					c14.2,5.2,26.6,12.5,35.1,20.6c9.4,8.9,13,17.9,10.2,25.4c0,0.1-0.2,0.6-0.6,1.4c-1.4,3.3-5.6,13.2-7.7,19.1
					c-0.5,1.5-1.9,2.5-3.5,2.6C412.3,396.3,412.3,396.3,412.2,396.3z M329.9,347c11.7,0,23.9,2.7,39.1,8.5
					c19.5,7.4,34,16.9,42.4,27.9c1.9-4.8,4-9.7,5-12.1c0.2-0.6,0.4-0.9,0.5-1.1c1.5-4.3-1.5-10.4-8.3-16.8
					c-7.7-7.3-19.2-14-32.4-18.8l0,0c-27.9-10.2-50.9-7.6-54.1,1.1c0,0.1-0.2,0.5-0.4,1.1c-0.8,2-2.6,6.6-4.3,11.3
					C321.5,347.4,325.7,347,329.9,347z"/>
			</g>
		</g>
		<g id="dino">
			<g>
				<path class="st10" d="M259.1,667.8c0,0-24.7,76.7-19.8,96.5c4.9,19.8,14.8,19.8,19.8,19.8c4.9,0,47,0,47,0l27.2-113.8
					L259.1,667.8z"/>
				<path class="st5" d="M309.3,788.1h-50.1c-8.4,0-18.6-2.6-23.7-22.8c-2.2-9,0.4-27.8,8-57.6c5.5-21.5,11.8-40.8,11.8-41l0.9-2.9
					l82.1,2.7L309.3,788.1z M262,671.9c-7.3,23-22.5,76.7-18.8,91.4c4.2,16.8,11.5,16.8,15.9,16.8H303l25.3-105.9L262,671.9z"/>
			</g>
			<g>
				<path class="st10" d="M424.8,672.8c0,0-24.7,76.7-19.8,96.5C410,789,419.9,789,424.8,789s47,0,47,0L499,675.3L424.8,672.8z"/>
				<path class="st5" d="M475,793h-50.1c-8.4,0-18.6-2.6-23.7-22.8c-2.2-9,0.4-27.8,8-57.6c5.5-21.5,11.8-40.8,11.8-41l0.9-2.9
					l82.1,2.7L475,793z M427.7,676.9c-7.3,23-22.5,76.7-18.8,91.4c4.2,16.8,11.5,16.8,15.9,16.8h43.8L494,679.1L427.7,676.9z"/>
			</g>
			<g>
				<path class="st11" d="M293.8,719.8c0,0-155.8-44.5-131.1-205.3s148.1-162.6,160.8-163.2c7.6,0,98.8-2.3,94,76.7
					c-3.1,51-45,54.9-68,50.7c-27.2-4.9-34.6-24.7-44.5-34.6c-7.4-7.4-28.6-20.3-49.5-2.5c-18.5,15.8-73.7,153.3,27.2,153.3
					c29.7,0,72.6-71.7,152.4-64.3c106.4,9.9,102.1,99.2,144.1,123.9s88.5,18.7,111.6,12.9c18.8-6,57-30.7,64.5-65.3
					c0,0,13.4,104-108.1,121.3c-51.9,7.4-131.9,2.7-131.9,2.7v34.5c0,0,0.1,34.6-24.7,34.6c-28.5,0-35.2,1.3-39.6,0
					c-5.6-1.7-14.8-4.9-12.4-22.3s4.9-42.8,4.9-42.8s-34.6,10.7-81.6,0.8c0,0-4.9,39.6-9.9,54.4c-1.6,4.7-2.5,9.9-17.3,9.9
					s-31.9,0.4-42-2.5c-5.1-1.4-9.9-4.9-7.4-19.8S293.8,719.8,293.8,719.8z"/>
				<path class="st5" d="M456.6,799.8c-3.1,0-5.1-0.2-7-0.8c-5-1.5-18.2-5.5-15.2-26.7c1.7-12.1,3.5-28.5,4.4-37
					c-11.4,2.5-38.8,6.8-73.7,0.2c-1.4,10.7-5.4,38.6-9.5,50.9l-0.2,0.7c-2,6.3-5.2,11.9-20.9,11.9c-1.6,0-3.3,0-4.9,0
					c-14.1,0-28.7,0.1-38.2-2.6c-9.3-2.7-12.6-10.4-10.3-24.3c2-12.1,6.5-40,8.1-49.7c-10.4-3.5-42.5-15.6-72.9-42.1
					c-21.3-18.5-37.2-40.2-47.3-64.5c-12.6-30.3-16.1-64.6-10.3-102c5.6-36.7,16.9-68.1,33.4-93.4c13.6-20.7,30.8-37.5,51.1-49.8
					c16.3-9.8,43.2-21.9,79-23.4l0.9,0c0.1,0,0.1,0,0.2,0l0.6,0c16.3-0.1,56.7,2.3,80.1,27.1c12.8,13.6,18.7,31.7,17.3,53.9
					c-1.2,19.6-8,34.4-20.2,44c-19.2,15-45.1,11.8-52.5,10.4c-22.1-4-32-17.1-39.9-27.5c-2.3-3.1-4.5-6-6.7-8.2
					c-0.9-0.9-21.7-21.3-44-2.3c-5.7,4.8-16.1,24.2-23.1,47.1c-4.9,16.1-11.8,46.5-3.3,69.6c7.2,19.7,24.4,29.7,51,29.7
					c9.5,0,22-9.5,36.6-20.6c27-20.5,64-48.6,116.2-43.7c71.6,6.7,94.9,49,113.7,83c9.9,18,18.5,33.5,32.1,41.5
					c42.6,25.1,89.9,17.1,108.5,12.5c18.2-5.9,54.7-30.1,61.6-62.3c0.4-1.9,2.1-3.2,4.1-3.2c1.9,0.1,3.6,1.6,3.8,3.5
					c0.1,1.1,3.4,27.4-8.8,56.2c-7.1,17-18.2,31.3-32.7,42.5c-18.1,13.9-41.6,23-70.1,27.1c-44.9,6.4-111.2,3.8-128.5,3v30.3
					c0,0.8-0.1,20.5-11,31.5c-4.7,4.7-10.7,7.1-17.8,7.1c-12.4,0-20.4,0.2-26.3,0.4C461,799.7,458.6,799.8,456.6,799.8z
					 M443.4,726.2c0.9,0,1.8,0.3,2.5,0.9c1,0.8,1.6,2.2,1.5,3.5c0,0.3-2.5,25.8-5,43c-2.1,14.3,4.7,16.4,9.6,17.9
					c1.8,0.6,5.2,0.5,11.8,0.3c5.6-0.2,14.1-0.4,26.6-0.4c4.9,0,8.9-1.6,12.1-4.8c8.6-8.6,8.6-25.6,8.6-25.8v-34.5
					c0-1.1,0.5-2.2,1.3-2.9c0.8-0.8,1.9-1.2,3-1.1c0.8,0,80.2,4.6,131.1-2.7c48.8-7,81.2-28.7,96.4-64.5c4.8-11.3,7.1-22.4,8-31.4
					c-15.2,26-44.8,43.1-59,47.6c-0.1,0-0.2,0-0.2,0.1c-19.4,4.9-69.4,13.3-114.6-13.3c-15.5-9.1-25-26.3-35-44.5
					c-18.8-34-40-72.6-107.4-78.9c-49.1-4.6-83.2,21.3-110.6,42.1c-16.3,12.4-29.2,22.2-41.4,22.2c-37.7,0-52.6-19-58.5-34.9
					c-16.3-44.2,15.3-114.1,28.7-125.5c22.3-19,45.7-6.5,54.9,2.7c2.6,2.6,5,5.7,7.5,9c7.4,9.9,15.9,21,35,24.5
					c6.7,1.2,29.6,4.1,46.2-8.8c10.3-8.1,16.1-21,17.1-38.2c1.2-19.9-3.9-36-15.1-47.9c-21.2-22.4-59-24.7-74.2-24.6l-1.4,0
					c-34.1,1.5-59.8,12.9-75.2,22.3c-43.6,26.3-70.8,72.6-80.8,137.5c-5.5,35.9-2.2,68.7,9.7,97.6c9.6,23.1,24.7,43.8,45,61.5
					c34.8,30.4,73.1,41.6,73.5,41.7c1.9,0.6,3.2,2.5,2.8,4.5c-0.1,0.4-6.2,38.5-8.7,53.2c-2.2,13.4,1.9,14.5,4.6,15.3
					c8.5,2.4,23.1,2.4,36,2.3c1.7,0,3.3,0,4.9,0c11.2,0,12-2.6,13.3-6.4l0.2-0.7c4.8-14.3,9.7-53.3,9.7-53.6
					c0.1-1.1,0.7-2.1,1.6-2.8c0.9-0.6,2.1-0.9,3.1-0.7c45.3,9.5,79.3-0.6,79.6-0.7C442.6,726.2,443,726.2,443.4,726.2z"/>
			</g>
			<g>
				<circle class="st5" cx="371.3" cy="404.2" r="3.7"/>
				<path class="st5" d="M371.3,411.9c-4.3,0-7.7-3.5-7.7-7.7s3.5-7.7,7.7-7.7s7.7,3.5,7.7,7.7S375.6,411.9,371.3,411.9z
					 M371.3,403.9c-0.2,0-0.3,0.1-0.3,0.3s0.1,0.3,0.3,0.3s0.3-0.1,0.3-0.3S371.5,403.9,371.3,403.9z"/>
			</g>
			<g>
				<circle class="st5" cx="401" cy="411.6" r="3.7"/>
				<path class="st5" d="M401,419.3c-4.3,0-7.7-3.5-7.7-7.7s3.5-7.7,7.7-7.7s7.7,3.5,7.7,7.7S405.2,419.3,401,419.3z M401,411.3
					c-0.2,0-0.3,0.1-0.3,0.3s0.1,0.3,0.3,0.3c0.2,0,0.3-0.1,0.3-0.3S401.2,411.3,401,411.3z"/>
			</g>
		</g>
	</g>
</g>
</svg>
